<?xml version="1.0" encoding="UTF-8"?>
<svg id="_圖層_1" xmlns="http://www.w3.org/2000/svg" version="1.1" viewBox="0 0 133 125">
  <!-- Generator: Adobe Illustrator 29.0.0, SVG Export Plug-In . SVG Version: 2.1.0 Build 186)  -->
  <defs>
    <style>
      .st0 {
        fill: #632340;
      }

      .st1 {
        fill: #f6d44d;
      }

      .st2 {
        fill: #5887da;
      }

      .st3 {
        fill: #fff;
      }

      .st4 {
        fill: #f5333f;
      }
    </style>
  </defs>
  <g>
    <path class="st3" d="M76.1,97.3c-.9-.5-1.9-.9-3.2-1.1h-14.1v20.5h4.3v-16.5h8.5c2,.2,3,1.2,3,2.8s-.9,2.7-2.8,3.3h-6.5l2.6,4.2h5.3c1.2-.2,2.2-.7,3.1-1.2,2.1-1.4,3.1-3.4,3.1-6.2s-1.1-4.4-3.2-5.7h0Z"/>
    <rect class="st3" x="51.4" y="96.2" width="4.3" height="20.5"/>
    <polygon class="st3" points="25.6 96.2 25.6 100.2 35.7 100.2 35.7 116.7 37.8 116.7 40.3 116.7 40.3 100.2 47.9 100.2 50.1 96.2 25.6 96.2"/>
    <g>
      <path class="st3" d="M85.7,106.5c0-2.7,1.3-4.5,3.4-5.6.9-.5,1.8-.6,3.1-.7h7.5l1.7-4.1h-10.3c-1.9.2-3.6.7-5,1.4-3.3,1.8-4.7,4.6-4.7,8.9h4.4s0,0,0,0h0Z"/>
      <path class="st3" d="M100.7,112.7h-9.6c-1.1-.1-2-.7-2.8-1.2-1.9-1.2-2.5-3-2.5-5.9h-4.4c0,4.6,1.7,7.8,4.7,9.6,1.3.8,2.8,1.3,4.5,1.4h12.1s-2-3.9-2-3.9Z"/>
    </g>
  </g>
  <g>
    <path class="st1" d="M102.7,15.5v15.2c-22.4-7-34.7-13.7-43.6-19.9h41.6c1.1,0,1.9.9,1.9,1.9v2.8Z"/>
    <path class="st0" d="M100.6,87.5c-29.8-.4-27.5-9.6-46.2-9.6s-27.5,8.3-28.8,9.5v-32.9c4.5-.8,9.6-1.2,15.4-.8,24.9,1.4,20.7,12.7,61.7,15.1v16.9c0,1.1-.9,1.9-1.9,1.9h-.1s0,0,0,0Z"/>
    <path class="st2" d="M25.6,22.6v26.5c4.6-.5,9.9-.7,15.8,0,24.9,2.9,19.8,14.9,61.3,19.7v-19c-52.3-7.8-46.3-22.2-77.1-27.1Z"/>
    <path class="st4" d="M29.3,10.8h23.8c8.9,6.2,27.2,14.5,49.5,19.9v18.9C49.3,38.6,57.1,23.5,25.6,16.9v-4.2c0-1.1.9-1.9,1.9-1.9h1.8Z"/>
  </g>
</svg>