<?xml version="1.0" encoding="UTF-8"?>
<svg id="_圖層_1" data-name="圖層 1" xmlns="http://www.w3.org/2000/svg" viewBox="0 0 133 125">
  <defs>
    <style>
      .cls-1 {
        fill: #632340;
      }

      .cls-2 {
        fill: #f6d44d;
      }

      .cls-3 {
        fill: #5887da;
      }

      .cls-4 {
        fill: #f5333f;
      }
    </style>
  </defs>
  <g>
    <path d="M76.08,97.27c-.88-.53-1.94-.89-3.18-1.09h-14.12v20.46h4.3v-16.47h8.47c2,.24,3,1.15,3,2.75s-.94,2.72-2.82,3.3h-6.46l2.55,4.16h5.29c1.2-.25,2.23-.67,3.09-1.25,2.06-1.38,3.09-3.43,3.09-6.17s-1.07-4.43-3.21-5.7Z"/>
    <rect x="51.44" y="96.18" width="4.3" height="20.46"/>
    <polygon points="25.63 96.16 25.6 100.25 35.68 100.25 35.68 116.65 37.85 116.68 40.34 116.68 40.34 100.25 47.88 100.25 50.07 96.18 25.63 96.16"/>
    <g>
      <path d="M85.74,106.52c0-2.73,1.26-4.48,3.41-5.57.87-.46,1.79-.59,3.05-.68h7.52l1.71-4.09h-10.35c-1.94.18-3.61.65-5.01,1.41-3.34,1.81-4.71,4.59-4.71,8.93h0s4.38.01,4.38.01c0,0,0-.01,0-.02Z"/>
      <path d="M100.66,112.74l-9.61-.02c-1.09-.11-2.02-.72-2.79-1.21-1.86-1.18-2.51-2.96-2.51-5.91h-4.38c0,4.56,1.71,7.77,4.73,9.64,1.26.78,2.77,1.26,4.53,1.44h12.05l-2.02-3.94Z"/>
    </g>
  </g>
  <g>
    <path class="cls-2" d="M102.67,15.47v15.2c-22.4-7.01-34.68-13.69-43.56-19.91h41.63c1.06,0,1.93.86,1.93,1.93v2.78Z"/>
    <path class="cls-1" d="M100.62,87.51c-29.75-.42-27.51-9.62-46.25-9.62s-27.47,8.29-28.77,9.49v-32.91c4.49-.78,9.62-1.16,15.39-.84,24.88,1.39,20.67,12.66,61.69,15.08v16.88c0,1.07-.87,1.93-1.93,1.93l-.13-.02Z"/>
    <path class="cls-3" d="M25.6,22.56v26.45c4.62-.55,9.89-.65,15.77.02,24.89,2.86,19.79,14.92,61.3,19.69v-19.01c-52.34-7.8-46.27-22.24-77.07-27.15Z"/>
    <path class="cls-4" d="M29.34,10.76h23.8c8.88,6.22,27.24,14.49,49.54,19.91v18.92C49.34,38.59,57.14,23.55,25.6,16.86v-4.18c0-1.07.86-1.93,1.93-1.93h1.81Z"/>
  </g>
</svg>